<svg xmlns="http://www.w3.org/2000/svg" viewBox="0 0 1300 900" role="img">
<defs>
<linearGradient id="bg" x1="0" y1="0" x2="1" y2="1"><stop offset="0" stop-color="#030712"/><stop offset="1" stop-color="#0B2A5B"/></linearGradient>
<linearGradient id="brand" gradientUnits="userSpaceOnUse" x1="300" y1="150" x2="1000" y2="750"><stop offset="0" stop-color="#0D3F7A"/><stop offset="0.5" stop-color="#2380CC"/><stop offset="1" stop-color="#5CD6F5"/></linearGradient>
<linearGradient id="brandSoft" gradientUnits="userSpaceOnUse" x1="300" y1="150" x2="1000" y2="750"><stop offset="0" stop-color="#1B57A0"/><stop offset="1" stop-color="#3AA6E8"/></linearGradient>
<pattern id="grid" width="50" height="50" patternUnits="userSpaceOnUse"><path d="M50 0H0V50" fill="none" stroke="#fff" stroke-opacity="0.06" stroke-width="1"/></pattern>
<filter id="blur" x="-50%" y="-50%" width="200%" height="200%"><feGaussianBlur stdDeviation="70"/></filter>
</defs>
<rect width="1300" height="900" fill="url(#bg)"/>
<rect width="1300" height="900" fill="url(#grid)"/>
<circle cx="240" cy="150" r="260" fill="#2380CC" opacity="0.28" filter="url(#blur)"/>
<circle cx="1210" cy="770" r="240" fill="#5CD6F5" opacity="0.18" filter="url(#blur)"/>
<g transform="translate(650 450) scale(1.15) translate(-650 -450)"><g transform="translate(650,450)">
<circle r="130" fill="none" stroke="#5CD6F5" stroke-opacity="0.55" stroke-width="3" stroke-dasharray=""/><circle r="210" fill="none" stroke="#5CD6F5" stroke-opacity="0.43" stroke-width="3" stroke-dasharray="10 14"/><circle r="290" fill="none" stroke="#5CD6F5" stroke-opacity="0.31" stroke-width="3" stroke-dasharray="10 14"/><circle r="370" fill="none" stroke="#5CD6F5" stroke-opacity="0.19" stroke-width="3" stroke-dasharray="10 14"/><circle cx="160.8693330549854" cy="-134.98539803417324" r="12" fill="#030712" stroke="#5CD6F5" stroke-width="4"/><circle cx="251.14736709748723" cy="144.99999999999997" r="12" fill="#030712" stroke="#5CD6F5" stroke-width="4"/><circle cx="-320.42939940024235" cy="184.99999999999997" r="12" fill="#030712" stroke="#5CD6F5" stroke-width="4"/><circle cx="-237.5540928438076" cy="-166.33716654180338" r="12" fill="#030712" stroke="#5CD6F5" stroke-width="4"/><circle cx="-36.46611731005537" cy="206.8096281325637" r="12" fill="#030712" stroke="#5CD6F5" stroke-width="4"/><circle cx="-320.42939940024235" cy="-184.99999999999997" r="12" fill="#030712" stroke="#5CD6F5" stroke-width="4"/>
<circle r="92" fill="url(#brand)"/>
<rect x="-42" y="-8" width="84" height="66" rx="14" fill="#fff" fill-opacity="0.95"/>
<path d="M-24,-8 V-30 a24,24 0 0 1 48,0 V-8" fill="none" stroke="#fff" stroke-width="14" stroke-linecap="round"/>
<circle cy="22" r="9" fill="#0D3F7A"/><rect x="-3" y="26" width="6" height="18" rx="3" fill="#0D3F7A"/>
</g></g>
</svg>
