<svg xmlns="http://www.w3.org/2000/svg" viewBox="0 0 1300 900" role="img">
<defs>
<linearGradient id="bg" x1="0" y1="0" x2="1" y2="1"><stop offset="0" stop-color="#030712"/><stop offset="1" stop-color="#0B2A5B"/></linearGradient>
<linearGradient id="brand" gradientUnits="userSpaceOnUse" x1="300" y1="150" x2="1000" y2="750"><stop offset="0" stop-color="#0D3F7A"/><stop offset="0.5" stop-color="#2380CC"/><stop offset="1" stop-color="#5CD6F5"/></linearGradient>
<linearGradient id="brandSoft" gradientUnits="userSpaceOnUse" x1="300" y1="150" x2="1000" y2="750"><stop offset="0" stop-color="#1B57A0"/><stop offset="1" stop-color="#3AA6E8"/></linearGradient>
<pattern id="grid" width="50" height="50" patternUnits="userSpaceOnUse"><path d="M50 0H0V50" fill="none" stroke="#fff" stroke-opacity="0.06" stroke-width="1"/></pattern>
<filter id="blur" x="-50%" y="-50%" width="200%" height="200%"><feGaussianBlur stdDeviation="70"/></filter>
</defs>
<rect width="1300" height="900" fill="url(#bg)"/>
<rect width="1300" height="900" fill="url(#grid)"/>
<circle cx="420" cy="150" r="260" fill="#2380CC" opacity="0.28" filter="url(#blur)"/>
<circle cx="1030" cy="770" r="240" fill="#5CD6F5" opacity="0.18" filter="url(#blur)"/>
<g transform="translate(650 450) scale(1.15) translate(-650 -450)"><g transform="translate(610,430)">
<rect x="-340" y="-230" width="700" height="500" rx="34" fill="#fff" fill-opacity="0.05" stroke="#fff" stroke-opacity="0.16" stroke-width="2"/>
<rect x="-300" y="110" width="84" height="90" rx="16" fill="url(#brand)" fill-opacity="0.45"/><rect x="-180" y="50" width="84" height="150" rx="16" fill="url(#brand)" fill-opacity="0.58"/><rect x="-60" y="-10" width="84" height="210" rx="16" fill="url(#brand)" fill-opacity="0.71"/><rect x="60" y="-90" width="84" height="290" rx="16" fill="url(#brand)" fill-opacity="0.84"/><rect x="180" y="-180" width="84" height="380" rx="16" fill="url(#brand)" fill-opacity="0.97"/>
<path d="M-258,90 L-138,20 L-18,-40 L102,-110 L222,-190" fill="none" stroke="#5CD6F5" stroke-opacity="0.9" stroke-width="8" stroke-linecap="round" stroke-linejoin="round"/>
<circle cx="222" cy="-190" r="16" fill="#030712" stroke="#5CD6F5" stroke-width="4"/>
</g>
<g transform="translate(1050,210) scale(0.42)">
<path d="M-110,-5 V90 C-60,140 60,140 110,90 V-5 L0,40 Z" fill="url(#brandSoft)"/>
<polygon points="0,-140 220,-40 0,60 -220,-40" fill="url(#brand)"/>
<polygon points="0,-140 220,-40 0,-40" fill="#fff" fill-opacity="0.14"/>
<path d="M190,-32 V70" stroke="#5CD6F5" stroke-width="7" stroke-linecap="round"/><circle cx="190" cy="82" r="16" fill="#5CD6F5"/>

</g></g>
</svg>
