<svg xmlns="http://www.w3.org/2000/svg" viewBox="0 0 1300 900" role="img">
<defs>
<linearGradient id="bg" x1="0" y1="0" x2="1" y2="1"><stop offset="0" stop-color="#030712"/><stop offset="1" stop-color="#0B2A5B"/></linearGradient>
<linearGradient id="brand" gradientUnits="userSpaceOnUse" x1="300" y1="150" x2="1000" y2="750"><stop offset="0" stop-color="#0D3F7A"/><stop offset="0.5" stop-color="#2380CC"/><stop offset="1" stop-color="#5CD6F5"/></linearGradient>
<linearGradient id="brandSoft" gradientUnits="userSpaceOnUse" x1="300" y1="150" x2="1000" y2="750"><stop offset="0" stop-color="#1B57A0"/><stop offset="1" stop-color="#3AA6E8"/></linearGradient>
<pattern id="grid" width="50" height="50" patternUnits="userSpaceOnUse"><path d="M50 0H0V50" fill="none" stroke="#fff" stroke-opacity="0.06" stroke-width="1"/></pattern>
<filter id="blur" x="-50%" y="-50%" width="200%" height="200%"><feGaussianBlur stdDeviation="70"/></filter>
</defs>
<rect width="1300" height="900" fill="url(#bg)"/>
<rect width="1300" height="900" fill="url(#grid)"/>
<circle cx="510" cy="150" r="260" fill="#2380CC" opacity="0.28" filter="url(#blur)"/>
<circle cx="940" cy="770" r="240" fill="#5CD6F5" opacity="0.18" filter="url(#blur)"/>
<g transform="translate(650 450) scale(1.15) translate(-650 -450)"><g transform="translate(650,450)">
<path d="M-120,-190 V-260 H-40" fill="none" stroke="#5CD6F5" stroke-opacity="0.55" stroke-width="4" stroke-linecap="round" stroke-linejoin="round"/><circle cx="-40" cy="-260" r="11" fill="#030712" stroke="#5CD6F5" stroke-width="4"/><path d="M200,-160 V-250 H280" fill="none" stroke="#5CD6F5" stroke-opacity="0.55" stroke-width="4" stroke-linecap="round" stroke-linejoin="round"/><circle cx="280" cy="-250" r="11" fill="#030712" stroke="#5CD6F5" stroke-width="4"/>
<rect x="-290" y="-170" width="400" height="250" rx="26" fill="#fff" fill-opacity="0.09" stroke="#fff" stroke-opacity="0.28" stroke-width="2"/>
<rect x="-268" y="-148" width="356" height="206" rx="14" fill="#030712" fill-opacity="0.55"/>
<rect x="-240" y="-120" width="150" height="26" rx="13" fill="url(#brand)"/>
<rect x="-240" y="-72" width="290" height="14" rx="7" fill="#fff" fill-opacity="0.18"/>
<rect x="-240" y="-44" width="230" height="14" rx="7" fill="#fff" fill-opacity="0.12"/>
<rect x="-240" y="-8" width="90" height="46" rx="12" fill="url(#brandSoft)"/><rect x="-136" y="-8" width="90" height="46" rx="12" fill="#5CD6F5" fill-opacity="0.35"/><rect x="-32" y="-8" width="90" height="46" rx="12" fill="#fff" fill-opacity="0.14"/>
<path d="M-330,96 H150 L120,130 H-300 Z" fill="url(#brandSoft)" opacity="0.9"/>
<rect x="170" y="-110" width="130" height="240" rx="28" fill="#fff" fill-opacity="0.09" stroke="#fff" stroke-opacity="0.3" stroke-width="2"/>
<rect x="188" y="-84" width="94" height="170" rx="12" fill="#030712" fill-opacity="0.55"/>
<rect x="204" y="-64" width="62" height="20" rx="10" fill="url(#brand)"/><rect x="204" y="-30" width="62" height="12" rx="6" fill="#fff" fill-opacity="0.2"/><rect x="204" y="-8" width="44" height="12" rx="6" fill="#fff" fill-opacity="0.14"/>
<circle cx="235" cy="108" r="8" fill="#fff" fill-opacity="0.3"/>
<circle cx="300" cy="-130" r="46" fill="url(#brand)"/><path d="M280,-130 l14,15 l28,-32" fill="none" stroke="#fff" stroke-width="10" stroke-linecap="round" stroke-linejoin="round"/>
<path d="M-40,160 H150 M-300,190 H300" stroke="#5CD6F5" stroke-opacity="0.25" stroke-width="3" stroke-dasharray="6 10"/>
</g></g>
</svg>
